<?xml version="1.0" standalone="no"?>
<!DOCTYPE svg PUBLIC "-//W3C//DTD SVG 20010904//EN"
 "http://www.w3.org/TR/2001/REC-SVG-20010904/DTD/svg10.dtd">
<svg version="1.0" xmlns="http://www.w3.org/2000/svg"
 width="260.000000pt" height="260.000000pt" viewBox="0 0 260.000000 260.000000"
 preserveAspectRatio="xMidYMid meet">
<metadata>
Created by potrace 1.11, written by Peter Selinger 2001-2013
</metadata>
<g transform="translate(0.000000,260.000000) scale(0.100000,-0.100000)"
fill="#000000" stroke="none">
<path d="M905 2566 c-416 -136 -718 -435 -862 -851 l-38 -110 -3 -275 c-4
-293 0 -335 45 -468 64 -194 167 -356 328 -518 156 -157 301 -249 494 -314
l89 -30 347 0 c343 0 347 0 421 25 249 84 474 247 637 463 88 118 145 225 194
368 l38 109 0 320 c0 358 0 361 -85 557 -120 278 -401 559 -681 679 -174 76
-197 79 -529 79 l-295 -1 -100 -33z m625 -436 c224 -65 415 -228 520 -445 61
-126 80 -201 87 -345 12 -261 -65 -476 -236 -653 -113 -118 -236 -193 -376
-231 -86 -24 -258 -32 -352 -16 -321 51 -599 296 -677 596 -60 232 -34 484 72
689 37 73 65 109 142 186 133 135 245 197 420 234 96 21 303 13 400 -15z"/>
<path d="M1211 1789 c-199 -33 -369 -210 -401 -417 -41 -264 147 -519 415
-562 268 -43 523 146 566 419 40 261 -149 518 -411 560 -74 12 -94 12 -169 0z"/>
</g>
</svg>
